<svg id="Tree_Diag" data-name="Tree, Diag" xmlns="http://www.w3.org/2000/svg" viewBox="0 0 1657.7 971.27"><defs><style>.cls-1,.cls-4{fill:#94d9f0;}.cls-2{fill:#445eb2;}.cls-11,.cls-15,.cls-17,.cls-3,.cls-7{fill:none;}.cls-3,.cls-4{stroke:#445eb2;}.cls-11,.cls-12,.cls-15,.cls-16,.cls-17,.cls-3,.cls-4,.cls-7,.cls-8{stroke-miterlimit:10;}.cls-5,.cls-8{fill:#c1e59c;}.cls-6{fill:#5abf49;}.cls-7,.cls-8{stroke:#5abf49;}.cls-12,.cls-9{fill:#ffd88a;}.cls-10{fill:#a27d0e;}.cls-11,.cls-12{stroke:#a27d0e;}.cls-13,.cls-16{fill:#f69799;}.cls-14{fill:#f92488;}.cls-15,.cls-16{stroke:#f92488;}.cls-17{stroke:#109957;stroke-width:3px;}</style></defs><title>Artboard 1</title><g id="Layer_1" data-name="Layer 1"><rect class="cls-1" x="504.5" y="145.83" width="143" height="143"/><path class="cls-2" d="M647,146.33v142H505v-142H647m1-1H504v144H648v-144Z"/><line class="cls-3" x1="504" y1="162.83" x2="648" y2="162.83"/><line class="cls-4" x1="504" y1="181.83" x2="648" y2="181.83"/><line class="cls-3" x1="504" y1="199.83" x2="648" y2="199.83"/><line class="cls-4" x1="504" y1="217.83" x2="648" y2="217.83"/><line class="cls-3" x1="504" y1="234.83" x2="648" y2="234.83"/><line class="cls-4" x1="504" y1="252.83" x2="648" y2="252.83"/><line class="cls-4" x1="504" y1="270.83" x2="648" y2="270.83"/><line class="cls-3" x1="522" y1="288.83" x2="522" y2="144.83"/><line class="cls-4" x1="541" y1="288.83" x2="541" y2="144.83"/><line class="cls-3" x1="559" y1="288.83" x2="559" y2="144.83"/><line class="cls-4" x1="577" y1="288.83" x2="577" y2="144.83"/><line class="cls-3" x1="594" y1="288.83" x2="594" y2="144.83"/><line class="cls-4" x1="612" y1="288.83" x2="612" y2="144.83"/><line class="cls-4" x1="630" y1="288.83" x2="630" y2="144.83"/><rect class="cls-1" x="684.5" y="325.83" width="143" height="143"/><path class="cls-2" d="M827,326.33v142H685v-142H827m1-1H684v144H828v-144Z"/><line class="cls-3" x1="684" y1="342.83" x2="828" y2="342.83"/><line class="cls-4" x1="684" y1="361.83" x2="828" y2="361.83"/><line class="cls-3" x1="684" y1="379.83" x2="828" y2="379.83"/><line class="cls-4" x1="684" y1="397.83" x2="828" y2="397.83"/><line class="cls-3" x1="684" y1="414.83" x2="828" y2="414.83"/><line class="cls-4" x1="684" y1="432.83" x2="828" y2="432.83"/><line class="cls-4" x1="684" y1="450.83" x2="828" y2="450.83"/><line class="cls-3" x1="702" y1="468.83" x2="702" y2="324.83"/><line class="cls-4" x1="721" y1="468.83" x2="721" y2="324.83"/><line class="cls-3" x1="739" y1="468.83" x2="739" y2="324.83"/><line class="cls-4" x1="757" y1="468.83" x2="757" y2="324.83"/><line class="cls-3" x1="774" y1="468.83" x2="774" y2="324.83"/><line class="cls-4" x1="792" y1="468.83" x2="792" y2="324.83"/><line class="cls-4" x1="810" y1="468.83" x2="810" y2="324.83"/><rect class="cls-1" x="144.5" y="504.83" width="143" height="143"/><path class="cls-2" d="M287,505.33v142H145v-142H287m1-1H144v144H288v-144Z"/><line class="cls-3" x1="144" y1="521.83" x2="288" y2="521.83"/><line class="cls-4" x1="144" y1="540.83" x2="288" y2="540.83"/><line class="cls-3" x1="144" y1="558.83" x2="288" y2="558.83"/><line class="cls-4" x1="144" y1="576.83" x2="288" y2="576.83"/><line class="cls-3" x1="144" y1="593.83" x2="288" y2="593.83"/><line class="cls-4" x1="144" y1="611.83" x2="288" y2="611.83"/><line class="cls-4" x1="144" y1="629.83" x2="288" y2="629.83"/><line class="cls-3" x1="162" y1="647.83" x2="162" y2="503.83"/><line class="cls-4" x1="181" y1="647.83" x2="181" y2="503.83"/><line class="cls-3" x1="199" y1="647.83" x2="199" y2="503.83"/><line class="cls-4" x1="217" y1="647.83" x2="217" y2="503.83"/><line class="cls-3" x1="234" y1="647.83" x2="234" y2="503.83"/><line class="cls-4" x1="252" y1="647.83" x2="252" y2="503.83"/><line class="cls-4" x1="270" y1="647.83" x2="270" y2="503.83"/><rect class="cls-1" x="324.5" y="684.83" width="143" height="143"/><path class="cls-2" d="M467,685.33v142H325v-142H467m1-1H324v144H468v-144Z"/><line class="cls-3" x1="324" y1="702.83" x2="468" y2="702.83"/><line class="cls-4" x1="324" y1="721.83" x2="468" y2="721.83"/><line class="cls-3" x1="324" y1="739.83" x2="468" y2="739.83"/><line class="cls-4" x1="324" y1="757.83" x2="468" y2="757.83"/><line class="cls-3" x1="324" y1="774.83" x2="468" y2="774.83"/><line class="cls-4" x1="324" y1="792.83" x2="468" y2="792.83"/><line class="cls-4" x1="324" y1="810.83" x2="468" y2="810.83"/><line class="cls-3" x1="342" y1="828.83" x2="342" y2="684.83"/><line class="cls-4" x1="361" y1="828.83" x2="361" y2="684.83"/><line class="cls-3" x1="379" y1="828.83" x2="379" y2="684.83"/><line class="cls-4" x1="397" y1="828.83" x2="397" y2="684.83"/><line class="cls-3" x1="414" y1="828.83" x2="414" y2="684.83"/><line class="cls-4" x1="432" y1="828.83" x2="432" y2="684.83"/><line class="cls-4" x1="450" y1="828.83" x2="450" y2="684.83"/></g><g id="Layer_5" data-name="Layer 5"><rect class="cls-5" x="144.5" y="144.83" width="143" height="143"/><path class="cls-6" d="M287,145.33v142H145v-142H287m1-1H144v144H288v-144Z"/><line class="cls-7" x1="144" y1="162.83" x2="288" y2="162.83"/><line class="cls-8" x1="144" y1="181.83" x2="288" y2="181.83"/><line class="cls-7" x1="144" y1="199.83" x2="288" y2="199.83"/><line class="cls-8" x1="144" y1="217.83" x2="288" y2="217.83"/><line class="cls-7" x1="144" y1="234.83" x2="288" y2="234.83"/><line class="cls-8" x1="144" y1="252.83" x2="288" y2="252.83"/><line class="cls-8" x1="144" y1="270.83" x2="288" y2="270.83"/><line class="cls-7" x1="162" y1="288.83" x2="162" y2="144.83"/><line class="cls-8" x1="180.5" y1="288.33" x2="180.5" y2="144.33"/><line class="cls-7" x1="199" y1="288.83" x2="199" y2="144.83"/><line class="cls-8" x1="217" y1="288.83" x2="217" y2="144.83"/><line class="cls-7" x1="234" y1="288.83" x2="234" y2="144.83"/><line class="cls-8" x1="252" y1="288.83" x2="252" y2="144.83"/><line class="cls-8" x1="270" y1="288.83" x2="270" y2="144.83"/><rect class="cls-5" x="324.5" y="324.83" width="143" height="143"/><path class="cls-6" d="M467,325.33v142H325v-142H467m1-1H324v144H468v-144Z"/><line class="cls-7" x1="324" y1="342.83" x2="468" y2="342.83"/><line class="cls-8" x1="324" y1="361.83" x2="468" y2="361.83"/><line class="cls-7" x1="324" y1="379.83" x2="468" y2="379.83"/><line class="cls-8" x1="324" y1="397.83" x2="468" y2="397.83"/><line class="cls-7" x1="324" y1="414.83" x2="468" y2="414.83"/><line class="cls-8" x1="324" y1="432.83" x2="468" y2="432.83"/><line class="cls-8" x1="324" y1="450.83" x2="468" y2="450.83"/><line class="cls-7" x1="342" y1="468.83" x2="342" y2="324.83"/><line class="cls-8" x1="361" y1="468.83" x2="361" y2="324.83"/><line class="cls-7" x1="379" y1="468.83" x2="379" y2="324.83"/><line class="cls-8" x1="397" y1="468.83" x2="397" y2="324.83"/><line class="cls-7" x1="414" y1="468.83" x2="414" y2="324.83"/><line class="cls-8" x1="432" y1="468.83" x2="432" y2="324.83"/><line class="cls-8" x1="450" y1="468.83" x2="450" y2="324.83"/><rect class="cls-5" x="504.5" y="503.83" width="143" height="143"/><path class="cls-6" d="M647,504.33v142H505v-142H647m1-1H504v144H648v-144Z"/><line class="cls-7" x1="504" y1="521.83" x2="648" y2="521.83"/><line class="cls-8" x1="504" y1="540.83" x2="648" y2="540.83"/><line class="cls-7" x1="504" y1="558.83" x2="648" y2="558.83"/><line class="cls-8" x1="504" y1="576.83" x2="648" y2="576.83"/><line class="cls-7" x1="504" y1="593.83" x2="648" y2="593.83"/><line class="cls-8" x1="504" y1="611.83" x2="648" y2="611.83"/><line class="cls-8" x1="504" y1="629.83" x2="648" y2="629.83"/><line class="cls-7" x1="522" y1="647.83" x2="522" y2="503.83"/><line class="cls-8" x1="541" y1="647.83" x2="541" y2="503.83"/><line class="cls-7" x1="559" y1="647.83" x2="559" y2="503.83"/><line class="cls-8" x1="577" y1="647.83" x2="577" y2="503.83"/><line class="cls-7" x1="594" y1="647.83" x2="594" y2="503.83"/><line class="cls-8" x1="612" y1="647.83" x2="612" y2="503.83"/><line class="cls-8" x1="630" y1="647.83" x2="630" y2="503.83"/><rect class="cls-5" x="684.5" y="684.83" width="143" height="143"/><path class="cls-6" d="M827,685.33v142H685v-142H827m1-1H684v144H828v-144Z"/><line class="cls-7" x1="684" y1="702.83" x2="828" y2="702.83"/><line class="cls-8" x1="684" y1="721.83" x2="828" y2="721.83"/><line class="cls-7" x1="684" y1="739.83" x2="828" y2="739.83"/><line class="cls-8" x1="684" y1="757.83" x2="828" y2="757.83"/><line class="cls-7" x1="684" y1="774.83" x2="828" y2="774.83"/><line class="cls-8" x1="684" y1="792.83" x2="828" y2="792.83"/><line class="cls-8" x1="684" y1="810.83" x2="828" y2="810.83"/><line class="cls-7" x1="702" y1="828.83" x2="702" y2="684.83"/><line class="cls-8" x1="721" y1="828.83" x2="721" y2="684.83"/><line class="cls-7" x1="739" y1="828.83" x2="739" y2="684.83"/><line class="cls-8" x1="757" y1="828.83" x2="757" y2="684.83"/><line class="cls-7" x1="774" y1="828.83" x2="774" y2="684.83"/><line class="cls-8" x1="792" y1="828.83" x2="792" y2="684.83"/><line class="cls-8" x1="810" y1="828.83" x2="810" y2="684.83"/></g><g id="Layer_4" data-name="Layer 4"><rect class="cls-9" x="324.5" y="144.83" width="143" height="143"/><path class="cls-10" d="M467,145.33v142H325v-142H467m1-1H324v144H468v-144Z"/><line class="cls-11" x1="324" y1="162.83" x2="468" y2="162.83"/><line class="cls-12" x1="324" y1="181.83" x2="468" y2="181.83"/><line class="cls-11" x1="324" y1="199.83" x2="468" y2="199.83"/><line class="cls-12" x1="324" y1="217.83" x2="468" y2="217.83"/><line class="cls-11" x1="324" y1="234.83" x2="468" y2="234.83"/><line class="cls-12" x1="324" y1="252.83" x2="468" y2="252.83"/><line class="cls-12" x1="324" y1="270.83" x2="468" y2="270.83"/><line class="cls-11" x1="342" y1="288.83" x2="342" y2="144.83"/><line class="cls-12" x1="361" y1="288.83" x2="361" y2="144.83"/><line class="cls-11" x1="379" y1="288.83" x2="379" y2="144.83"/><line class="cls-12" x1="397" y1="288.83" x2="397" y2="144.83"/><line class="cls-11" x1="414" y1="288.83" x2="414" y2="144.83"/><line class="cls-12" x1="432" y1="288.83" x2="432" y2="144.83"/><line class="cls-12" x1="450" y1="288.83" x2="450" y2="144.83"/><rect class="cls-9" x="504.5" y="324.83" width="143" height="143"/><path class="cls-10" d="M647,325.33v142H505v-142H647m1-1H504v144H648v-144Z"/><line class="cls-11" x1="504" y1="342.83" x2="648" y2="342.83"/><line class="cls-12" x1="504" y1="361.83" x2="648" y2="361.83"/><line class="cls-11" x1="504" y1="379.83" x2="648" y2="379.83"/><line class="cls-12" x1="504" y1="397.83" x2="648" y2="397.83"/><line class="cls-11" x1="504" y1="414.83" x2="648" y2="414.83"/><line class="cls-12" x1="504" y1="432.83" x2="648" y2="432.83"/><line class="cls-12" x1="504" y1="450.83" x2="648" y2="450.83"/><line class="cls-11" x1="522" y1="468.83" x2="522" y2="324.83"/><line class="cls-12" x1="541" y1="468.83" x2="541" y2="324.83"/><line class="cls-11" x1="559" y1="468.83" x2="559" y2="324.83"/><line class="cls-12" x1="577" y1="468.83" x2="577" y2="324.83"/><line class="cls-11" x1="594" y1="468.83" x2="594" y2="324.83"/><line class="cls-12" x1="612" y1="468.83" x2="612" y2="324.83"/><line class="cls-12" x1="630" y1="468.83" x2="630" y2="324.83"/><rect class="cls-9" x="144.5" y="684.83" width="143" height="143"/><path class="cls-10" d="M287,685.33v142H145v-142H287m1-1H144v144H288v-144Z"/><line class="cls-11" x1="144" y1="702.83" x2="288" y2="702.83"/><line class="cls-12" x1="144" y1="721.83" x2="288" y2="721.83"/><line class="cls-11" x1="144" y1="739.83" x2="288" y2="739.83"/><line class="cls-12" x1="144" y1="757.83" x2="288" y2="757.83"/><line class="cls-11" x1="144" y1="774.83" x2="288" y2="774.83"/><line class="cls-12" x1="144" y1="792.83" x2="288" y2="792.83"/><line class="cls-12" x1="144" y1="810.83" x2="288" y2="810.83"/><line class="cls-11" x1="162" y1="828.83" x2="162" y2="684.83"/><line class="cls-12" x1="181" y1="828.83" x2="181" y2="684.83"/><line class="cls-11" x1="199" y1="828.83" x2="199" y2="684.83"/><line class="cls-12" x1="217" y1="828.83" x2="217" y2="684.83"/><line class="cls-11" x1="234" y1="828.83" x2="234" y2="684.83"/><line class="cls-12" x1="252" y1="828.83" x2="252" y2="684.83"/><line class="cls-12" x1="270" y1="828.83" x2="270" y2="684.83"/><rect class="cls-9" x="684.5" y="503.83" width="143" height="143"/><path class="cls-10" d="M827,504.33v142H685v-142H827m1-1H684v144H828v-144Z"/><line class="cls-11" x1="684" y1="521.83" x2="828" y2="521.83"/><line class="cls-12" x1="684" y1="540.83" x2="828" y2="540.83"/><line class="cls-11" x1="684" y1="558.83" x2="828" y2="558.83"/><line class="cls-12" x1="684" y1="576.83" x2="828" y2="576.83"/><line class="cls-11" x1="684" y1="593.83" x2="828" y2="593.83"/><line class="cls-12" x1="684" y1="611.83" x2="828" y2="611.83"/><line class="cls-12" x1="684" y1="629.83" x2="828" y2="629.83"/><line class="cls-11" x1="702" y1="647.83" x2="702" y2="503.83"/><line class="cls-12" x1="721" y1="647.83" x2="721" y2="503.83"/><line class="cls-11" x1="739" y1="647.83" x2="739" y2="503.83"/><line class="cls-12" x1="757" y1="647.83" x2="757" y2="503.83"/><line class="cls-11" x1="774" y1="647.83" x2="774" y2="503.83"/><line class="cls-12" x1="792" y1="647.83" x2="792" y2="503.83"/><line class="cls-12" x1="810" y1="647.83" x2="810" y2="503.83"/></g><g id="Layer_3" data-name="Layer 3"><rect class="cls-13" x="144.5" y="324.83" width="143" height="143"/><path class="cls-14" d="M287,325.33v142H145v-142H287m1-1H144v144H288v-144Z"/><line class="cls-15" x1="144" y1="342.83" x2="288" y2="342.83"/><line class="cls-16" x1="144" y1="361.83" x2="288" y2="361.83"/><line class="cls-15" x1="144" y1="379.83" x2="288" y2="379.83"/><line class="cls-16" x1="144" y1="397.83" x2="288" y2="397.83"/><line class="cls-15" x1="144" y1="414.83" x2="288" y2="414.83"/><line class="cls-16" x1="144" y1="432.83" x2="288" y2="432.83"/><line class="cls-16" x1="144" y1="450.83" x2="288" y2="450.83"/><line class="cls-15" x1="162" y1="468.83" x2="162" y2="324.83"/><line class="cls-16" x1="181" y1="468.83" x2="181" y2="324.83"/><line class="cls-15" x1="199" y1="468.83" x2="199" y2="324.83"/><line class="cls-16" x1="217" y1="468.83" x2="217" y2="324.83"/><line class="cls-15" x1="234" y1="468.83" x2="234" y2="324.83"/><line class="cls-16" x1="252" y1="468.83" x2="252" y2="324.83"/><line class="cls-16" x1="270" y1="468.83" x2="270" y2="324.83"/><rect class="cls-13" x="684.5" y="144.83" width="143" height="143"/><path class="cls-14" d="M827,145.33v142H685v-142H827m1-1H684v144H828v-144Z"/><line class="cls-15" x1="684" y1="162.83" x2="828" y2="162.83"/><line class="cls-16" x1="684" y1="181.83" x2="828" y2="181.83"/><line class="cls-15" x1="684" y1="199.83" x2="828" y2="199.83"/><line class="cls-16" x1="684" y1="217.83" x2="828" y2="217.83"/><line class="cls-15" x1="684" y1="234.83" x2="828" y2="234.83"/><line class="cls-16" x1="684" y1="252.83" x2="828" y2="252.83"/><line class="cls-16" x1="684" y1="270.83" x2="828" y2="270.83"/><line class="cls-15" x1="702" y1="288.83" x2="702" y2="144.83"/><line class="cls-16" x1="721" y1="288.83" x2="721" y2="144.83"/><line class="cls-15" x1="739" y1="288.83" x2="739" y2="144.83"/><line class="cls-16" x1="757" y1="288.83" x2="757" y2="144.83"/><line class="cls-15" x1="774" y1="288.83" x2="774" y2="144.83"/><line class="cls-16" x1="792" y1="288.83" x2="792" y2="144.83"/><line class="cls-16" x1="810" y1="288.83" x2="810" y2="144.83"/><rect class="cls-13" x="324.5" y="503.83" width="143" height="143"/><path class="cls-14" d="M467,504.33v142H325v-142H467m1-1H324v144H468v-144Z"/><line class="cls-15" x1="324" y1="521.83" x2="468" y2="521.83"/><line class="cls-16" x1="324" y1="540.83" x2="468" y2="540.83"/><line class="cls-15" x1="324" y1="558.83" x2="468" y2="558.83"/><line class="cls-16" x1="324" y1="576.83" x2="468" y2="576.83"/><line class="cls-15" x1="324" y1="593.83" x2="468" y2="593.83"/><line class="cls-16" x1="324" y1="611.83" x2="468" y2="611.83"/><line class="cls-16" x1="324" y1="629.83" x2="468" y2="629.83"/><line class="cls-15" x1="342" y1="647.83" x2="342" y2="503.83"/><line class="cls-16" x1="361" y1="647.83" x2="361" y2="503.83"/><line class="cls-15" x1="379" y1="647.83" x2="379" y2="503.83"/><line class="cls-16" x1="397" y1="647.83" x2="397" y2="503.83"/><line class="cls-15" x1="414" y1="647.83" x2="414" y2="503.83"/><line class="cls-16" x1="432" y1="647.83" x2="432" y2="503.83"/><line class="cls-16" x1="450" y1="647.83" x2="450" y2="503.83"/><rect class="cls-13" x="504.5" y="684.83" width="143" height="143"/><path class="cls-14" d="M647,685.33v142H505v-142H647m1-1H504v144H648v-144Z"/><line class="cls-15" x1="504" y1="702.83" x2="648" y2="702.83"/><line class="cls-16" x1="504" y1="721.83" x2="648" y2="721.83"/><line class="cls-15" x1="504" y1="739.83" x2="648" y2="739.83"/><line class="cls-16" x1="504" y1="757.83" x2="648" y2="757.83"/><line class="cls-15" x1="504" y1="774.83" x2="648" y2="774.83"/><line class="cls-16" x1="504" y1="792.83" x2="648" y2="792.83"/><line class="cls-16" x1="504" y1="810.83" x2="648" y2="810.83"/><line class="cls-15" x1="522" y1="828.83" x2="522" y2="684.83"/><line class="cls-16" x1="541" y1="828.83" x2="541" y2="684.83"/><line class="cls-15" x1="559" y1="828.83" x2="559" y2="684.83"/><line class="cls-16" x1="577" y1="828.83" x2="577" y2="684.83"/><line class="cls-15" x1="594" y1="828.83" x2="594" y2="684.83"/><line class="cls-16" x1="612" y1="828.83" x2="612" y2="684.83"/><line class="cls-16" x1="630" y1="828.83" x2="630" y2="684.83"/><rect class="cls-1" x="1305.5" y="379.21" width="125" height="52.63"/><path class="cls-2" d="M1430,379.71v51.62H1306V379.71h124m1-1H1305v53.62h126V378.71Z"/><rect class="cls-5" x="945.5" y="378.83" width="125" height="52.63"/><path class="cls-6" d="M1070,379.33V431H946V379.33h124m1-1H945V432h126V378.33Z"/><rect class="cls-9" x="1089.5" y="378.83" width="125" height="52.63"/><path class="cls-10" d="M1214,379.33V431H1090V379.33h124m1-1H1089V432h126V378.33Z"/><rect class="cls-13" x="1449.5" y="378.83" width="125" height="52.63"/><path class="cls-14" d="M1574,379.33V431H1450V379.33h124m1-1H1449V432h126V378.33Z"/><line class="cls-17" x1="1007.5" y1="377.83" x2="1079.5" y2="287.83"/><line class="cls-17" x1="1151.5" y1="377.83" x2="1079.5" y2="287.83"/><line class="cls-17" x1="1368.5" y1="377.83" x2="1440.5" y2="287.83"/><line class="cls-17" x1="1512.5" y1="377.83" x2="1440.5" y2="287.83"/><line class="cls-17" x1="1079.5" y1="287.83" x2="1259.5" y2="215.83"/><line class="cls-17" x1="1439.5" y1="287.83" x2="1259.5" y2="215.83"/></g></svg>